<mxfile host="65bd71144e">
    <diagram id="ts7t6q3u_cvq76lZ-yU0" name="Seite-1">
        <mxGraphModel dx="1477" dy="639" grid="1" gridSize="10" guides="1" tooltips="1" connect="1" arrows="1" fold="1" page="1" pageScale="1" pageWidth="827" pageHeight="1169" math="0" shadow="0">
            <root>
                <mxCell id="0"/>
                <mxCell id="1" parent="0"/>
                <mxCell id="3uSWhU95igFiWWhQqcm4-15" style="edgeStyle=orthogonalEdgeStyle;rounded=0;orthogonalLoop=1;jettySize=auto;html=1;entryX=0.5;entryY=0;entryDx=0;entryDy=0;" parent="1" target="3uSWhU95igFiWWhQqcm4-7" edge="1">
                    <mxGeometry relative="1" as="geometry">
                        <mxPoint x="429" y="275" as="sourcePoint"/>
                        <mxPoint x="275" y="325" as="targetPoint"/>
                        <Array as="points">
                            <mxPoint x="429" y="295"/>
                            <mxPoint x="275" y="295"/>
                        </Array>
                    </mxGeometry>
                </mxCell>
                <mxCell id="3uSWhU95igFiWWhQqcm4-16" style="edgeStyle=orthogonalEdgeStyle;rounded=0;orthogonalLoop=1;jettySize=auto;html=1;" parent="1" source="3uSWhU95igFiWWhQqcm4-1" target="3uSWhU95igFiWWhQqcm4-9" edge="1">
                    <mxGeometry relative="1" as="geometry"/>
                </mxCell>
                <mxCell id="3uSWhU95igFiWWhQqcm4-17" style="edgeStyle=orthogonalEdgeStyle;rounded=0;orthogonalLoop=1;jettySize=auto;html=1;entryX=0.5;entryY=0;entryDx=0;entryDy=0;" parent="1" target="3uSWhU95igFiWWhQqcm4-11" edge="1">
                    <mxGeometry relative="1" as="geometry">
                        <mxPoint x="429" y="275" as="sourcePoint"/>
                        <mxPoint x="580" y="325" as="targetPoint"/>
                        <Array as="points">
                            <mxPoint x="429" y="295"/>
                            <mxPoint x="585" y="295"/>
                        </Array>
                    </mxGeometry>
                </mxCell>
                <mxCell id="3uSWhU95igFiWWhQqcm4-1" value="&lt;b&gt;Frontend&lt;/b&gt;&lt;br&gt;VueJS" style="rounded=0;whiteSpace=wrap;html=1;fillColor=#d5e8d4;strokeColor=#82b366;" parent="1" vertex="1">
                    <mxGeometry x="349" y="190" width="160" height="80" as="geometry"/>
                </mxCell>
                <mxCell id="3uSWhU95igFiWWhQqcm4-13" style="edgeStyle=orthogonalEdgeStyle;rounded=0;orthogonalLoop=1;jettySize=auto;html=1;" parent="1" source="3uSWhU95igFiWWhQqcm4-2" target="3uSWhU95igFiWWhQqcm4-1" edge="1">
                    <mxGeometry relative="1" as="geometry"/>
                </mxCell>
                <mxCell id="3uSWhU95igFiWWhQqcm4-14" value="" style="edgeStyle=orthogonalEdgeStyle;rounded=0;orthogonalLoop=1;jettySize=auto;html=1;" parent="1" source="3uSWhU95igFiWWhQqcm4-2" target="3uSWhU95igFiWWhQqcm4-1" edge="1">
                    <mxGeometry relative="1" as="geometry"/>
                </mxCell>
                <mxCell id="3uSWhU95igFiWWhQqcm4-2" value="Client" style="shape=umlActor;verticalLabelPosition=bottom;verticalAlign=top;html=1;outlineConnect=0;" parent="1" vertex="1">
                    <mxGeometry x="414" y="50" width="30" height="60" as="geometry"/>
                </mxCell>
                <mxCell id="3uSWhU95igFiWWhQqcm4-6" value="&lt;b&gt;Database&lt;/b&gt;&lt;br&gt;PostgreSQL" style="shape=cylinder3;whiteSpace=wrap;html=1;boundedLbl=1;backgroundOutline=1;size=15;fillColor=#e1d5e7;strokeColor=#9673a6;" parent="1" vertex="1">
                    <mxGeometry x="380" y="530" width="97.5" height="90" as="geometry"/>
                </mxCell>
                <mxCell id="3uSWhU95igFiWWhQqcm4-19" style="edgeStyle=orthogonalEdgeStyle;rounded=0;orthogonalLoop=1;jettySize=auto;html=1;entryX=0.5;entryY=0;entryDx=0;entryDy=0;entryPerimeter=0;" parent="1" source="3uSWhU95igFiWWhQqcm4-7" target="3uSWhU95igFiWWhQqcm4-6" edge="1">
                    <mxGeometry relative="1" as="geometry">
                        <Array as="points">
                            <mxPoint x="275" y="470"/>
                            <mxPoint x="429" y="470"/>
                        </Array>
                    </mxGeometry>
                </mxCell>
                <mxCell id="3uSWhU95igFiWWhQqcm4-7" value="&lt;b&gt;Order-Service&lt;br&gt;&lt;/b&gt;Spring Boot" style="rounded=0;whiteSpace=wrap;html=1;fillColor=#60a917;strokeColor=#2D7600;fontColor=#ffffff;" parent="1" vertex="1">
                    <mxGeometry x="220" y="320" width="110" height="100" as="geometry"/>
                </mxCell>
                <mxCell id="3uSWhU95igFiWWhQqcm4-20" style="edgeStyle=orthogonalEdgeStyle;rounded=0;orthogonalLoop=1;jettySize=auto;html=1;" parent="1" source="3uSWhU95igFiWWhQqcm4-9" target="3uSWhU95igFiWWhQqcm4-6" edge="1">
                    <mxGeometry relative="1" as="geometry"/>
                </mxCell>
                <mxCell id="3uSWhU95igFiWWhQqcm4-9" value="&lt;b&gt;Product-Service&lt;br&gt;&lt;/b&gt;Jakarta EE" style="rounded=0;whiteSpace=wrap;html=1;fillColor=#ffe6cc;strokeColor=#d79b00;" parent="1" vertex="1">
                    <mxGeometry x="373.75" y="320" width="110" height="100" as="geometry"/>
                </mxCell>
                <mxCell id="3uSWhU95igFiWWhQqcm4-21" style="edgeStyle=orthogonalEdgeStyle;rounded=0;orthogonalLoop=1;jettySize=auto;html=1;" parent="1" source="3uSWhU95igFiWWhQqcm4-11" target="3uSWhU95igFiWWhQqcm4-6" edge="1">
                    <mxGeometry relative="1" as="geometry">
                        <Array as="points">
                            <mxPoint x="600" y="470"/>
                            <mxPoint x="429" y="470"/>
                        </Array>
                    </mxGeometry>
                </mxCell>
                <mxCell id="3uSWhU95igFiWWhQqcm4-11" value="&lt;b&gt;Customer-Service&lt;br&gt;&lt;/b&gt;Micronaut" style="rounded=0;whiteSpace=wrap;html=1;fillColor=#dae8fc;strokeColor=#6c8ebf;" parent="1" vertex="1">
                    <mxGeometry x="530" y="320" width="110" height="100" as="geometry"/>
                </mxCell>
                <mxCell id="2" value="80" style="text;html=1;strokeColor=none;fillColor=none;align=center;verticalAlign=middle;whiteSpace=wrap;rounded=0;" vertex="1" parent="1">
                    <mxGeometry x="413.5" y="168" width="60" height="30" as="geometry"/>
                </mxCell>
                <mxCell id="3" value="5432" style="text;html=1;strokeColor=none;fillColor=none;align=center;verticalAlign=middle;whiteSpace=wrap;rounded=0;" vertex="1" parent="1">
                    <mxGeometry x="419.5" y="509" width="60" height="30" as="geometry"/>
                </mxCell>
                <mxCell id="4" value="8081" style="text;html=1;strokeColor=none;fillColor=none;align=center;verticalAlign=middle;whiteSpace=wrap;rounded=0;" vertex="1" parent="1">
                    <mxGeometry x="420.5" y="298" width="60" height="30" as="geometry"/>
                </mxCell>
                <mxCell id="5" value="8082" style="text;html=1;strokeColor=none;fillColor=none;align=center;verticalAlign=middle;whiteSpace=wrap;rounded=0;" vertex="1" parent="1">
                    <mxGeometry x="578" y="298" width="60" height="30" as="geometry"/>
                </mxCell>
                <mxCell id="6" value="8083" style="text;html=1;strokeColor=none;fillColor=none;align=center;verticalAlign=middle;whiteSpace=wrap;rounded=0;" vertex="1" parent="1">
                    <mxGeometry x="267" y="298" width="60" height="30" as="geometry"/>
                </mxCell>
            </root>
        </mxGraphModel>
    </diagram>
</mxfile>